<svg width="24" height="24" viewBox="0 0 24 24" fill="none" xmlns="http://www.w3.org/2000/svg">
<path d="M22 13V17C22 20.5 20 22 17 22H7C4 22 2 20.5 2 17V13C2 10.35 3.15 8.85003 5 8.28003C5.6 8.09003 6.27 8 7 8H17C17.73 8 18.4 8.09003 19 8.28003C20.85 8.85003 22 10.35 22 13Z" stroke="black" stroke-width="1.5" stroke-miterlimit="10" stroke-linecap="round" stroke-linejoin="round"/>
<path d="M19 7V8.28003C18.4 8.09003 17.73 8 17 8H7C6.27 8 5.6 8.09003 5 8.28003V7C5 5.9 5.9 5 7 5H17C18.1 5 19 5.9 19 7Z" stroke="black" stroke-width="1.5" stroke-miterlimit="10" stroke-linecap="round" stroke-linejoin="round"/>
<path d="M16 3.51001V5H8V3.51001C8 2.68001 8.68001 2 9.51001 2H14.49C15.32 2 16 2.68001 16 3.51001Z" stroke="black" stroke-width="1.5" stroke-miterlimit="10" stroke-linecap="round" stroke-linejoin="round"/>
</svg>
