<svg width="24" height="24" viewBox="0 0 24 24" fill="none" xmlns="http://www.w3.org/2000/svg">
<path d="M18.7647 19.5833C17.8833 20.9001 16.9488 22.185 15.5259 22.2062C14.1029 22.2381 13.6463 21.3673 12.0322 21.3673C10.4075 21.3673 9.90843 22.185 8.55981 22.2381C7.16872 22.2912 6.11743 20.8363 5.22544 19.5514C3.40958 16.9285 2.01849 12.0969 3.88744 8.84746C4.81129 7.23337 6.46786 6.21394 8.26248 6.18209C9.62171 6.16085 10.9172 7.10594 11.7561 7.10594C12.5844 7.10594 14.156 5.96971 15.802 6.13961C16.4922 6.17147 18.4249 6.4157 19.6673 8.24218C19.5717 8.30589 17.363 9.60141 17.3842 12.288C17.4161 15.495 20.1983 16.5675 20.2301 16.5781C20.1983 16.6524 19.7841 18.1073 18.7647 19.5833ZM12.7012 2.59285C13.4764 1.71147 14.7613 1.04248 15.8232 1C15.9613 2.24243 15.4622 3.49547 14.7188 4.38747C13.9861 5.29009 12.7756 5.99094 11.5862 5.89537C11.4269 4.67418 12.0216 3.3999 12.7012 2.59285Z" fill="#888888"/>
</svg>
