<svg width="24" height="24" viewBox="0 0 24 24" fill="none" xmlns="http://www.w3.org/2000/svg">
<path d="M14.7273 18C14.4836 18 14.2712 17.9003 14.09 17.701C13.9088 17.5017 13.8182 17.268 13.8182 17V7C13.8182 6.732 13.9088 6.49833 14.09 6.299C14.2712 6.09967 14.4836 6 14.7273 6H16.0909C16.3345 6 16.547 6.09967 16.7282 6.299C16.9094 6.49833 17 6.732 17 7V17C17 17.268 16.9094 17.5017 16.7282 17.701C16.547 17.9003 16.3345 18 16.0909 18H14.7273ZM7.90909 18C7.66545 18 7.45303 17.9003 7.27182 17.701C7.09061 17.5017 7 17.268 7 17V7C7 6.732 7.09061 6.49833 7.27182 6.299C7.45303 6.09967 7.66545 6 7.90909 6H9.27273C9.51636 6 9.72879 6.09967 9.91 6.299C10.0912 6.49833 10.1818 6.732 10.1818 7V17C10.1818 17.268 10.0912 17.5017 9.91 17.701C9.72879 17.9003 9.51636 18 9.27273 18H7.90909Z" fill="white"/>
</svg>
