<svg width="24" height="24" viewBox="0 0 24 24" fill="none" xmlns="http://www.w3.org/2000/svg">
<circle cx="3" cy="3" r="3" transform="matrix(-1 0 0 1 15 9)" stroke="black" stroke-width="1.5"/>
<path d="M12.0007 2L12.0008 1.25H12.0007V2ZM16.5007 4.9375L16.1257 5.58702L16.1258 5.58705L16.5007 4.9375ZM16.5007 19.0625L16.1258 18.413L16.1257 18.413L16.5007 19.0625ZM12.0007 22L12.0007 22.75L12.0008 22.75L12.0007 22ZM7.50074 19.0625L7.87585 18.413L7.87574 18.413L7.50074 19.0625ZM7.50074 4.9375L7.87574 5.58702L7.87581 5.58698L7.50074 4.9375ZM8.92007 3.01535L8.18921 2.84699L8.92007 3.01535ZM2.90797 9.68646L3.38501 9.10774L2.90797 9.68646ZM4.40924 18.5048L4.97849 18.0165L4.40924 18.5048ZM9.53546 21.6935L9.35108 22.4205L9.53546 21.6935ZM8.91996 20.9838L9.65078 20.8153L8.91996 20.9838ZM15.0797 20.9838L14.349 20.8149L15.0797 20.9838ZM14.464 21.6935L14.2796 20.9665L14.2796 20.9665L14.464 21.6935ZM19.5902 18.505L19.021 18.0166L19.5902 18.505ZM21.4422 8.70679L22.1504 8.45987L21.4422 8.70679ZM21.0926 9.68652L21.5698 10.2651L21.0926 9.68652ZM2.90784 14.3127L2.43088 13.7339L2.90784 14.3127ZM19.5913 5.49417L19.022 5.9825L19.5913 5.49417ZM4.40922 5.49421L3.83997 5.00588L4.40922 5.49421ZM21.4422 15.2921L22.1504 15.539L21.4422 15.2921ZM15.0796 3.01539L14.3489 3.18414L15.0796 3.01539ZM12.0007 2L12.0007 2.75C12.7881 2.75003 13.5515 2.84818 14.2797 3.03261L14.4638 2.30557L14.648 1.57853C13.8003 1.36383 12.9133 1.25004 12.0008 1.25L12.0007 2ZM15.0796 3.01539L14.3489 3.18414C14.5741 4.1595 15.1881 5.04568 16.1257 5.58702L16.5007 4.9375L16.8757 4.28798C16.314 3.96368 15.9462 3.43468 15.8104 2.84665L15.0796 3.01539ZM16.5007 4.9375L16.1258 5.58705C16.9865 6.08386 17.9621 6.1982 18.8562 5.98729L18.684 5.25733L18.5118 4.52736C17.973 4.65446 17.3909 4.58534 16.8757 4.28795L16.5007 4.9375ZM19.5913 5.49417L19.022 5.9825C19.7656 6.84927 20.3506 7.85424 20.734 8.9537L21.4422 8.70679L22.1504 8.45987C21.7043 7.18047 21.0239 6.01231 20.1605 5.00583L19.5913 5.49417ZM21.0926 9.68652L20.6154 9.1079C19.7835 9.79398 19.2507 10.8345 19.2507 12H20.0007H20.7507C20.7507 11.3017 21.0682 10.6788 21.5698 10.2651L21.0926 9.68652ZM20.0007 12H19.2507C19.2507 13.1656 19.7839 14.2055 20.6156 14.8913L21.0927 14.3126L21.5698 13.7339C21.0682 13.3203 20.7507 12.698 20.7507 12H20.0007ZM21.4422 15.2921L20.7341 15.0452C20.3507 16.1447 19.7651 17.1496 19.021 18.0166L19.5902 18.505L20.1593 18.9935C21.0231 17.987 21.7041 16.8189 22.1504 15.539L21.4422 15.2921ZM18.6831 18.742L18.855 18.0119C17.9611 17.8015 16.9859 17.9164 16.1258 18.413L16.5007 19.0625L16.8757 19.712C17.3909 19.4146 17.9728 19.3453 18.5113 19.472L18.6831 18.742ZM16.5007 19.0625L16.1257 18.413C15.1884 18.9542 14.5744 19.8398 14.349 20.8149L15.0797 20.9838L15.8105 21.1527C15.9463 20.565 16.3141 20.0363 16.8757 19.712L16.5007 19.0625ZM14.464 21.6935L14.2796 20.9665C13.5512 21.1513 12.7879 21.25 12.0007 21.25L12.0007 22L12.0008 22.75C12.9138 22.75 13.8009 22.6355 14.6484 22.4205L14.464 21.6935ZM12.0007 22V21.25C11.2129 21.25 10.4488 21.1514 9.71983 20.9665L9.53546 21.6935L9.35108 22.4205C10.1993 22.6356 11.0873 22.75 12.0007 22.75V22ZM8.91996 20.9838L9.65078 20.8153C9.42601 19.8406 8.8134 18.9546 7.87585 18.413L7.50074 19.0625L7.12563 19.712C7.68662 20.036 8.05355 20.5644 8.18915 21.1524L8.91996 20.9838ZM7.50074 19.0625L7.87574 18.413C7.01525 17.9162 6.03914 17.8011 5.14467 18.0118L5.31662 18.7418L5.48857 19.4718C6.02742 19.3449 6.61023 19.4144 7.12574 19.712L7.50074 19.0625ZM4.40924 18.5048L4.97849 18.0165C4.23485 17.1496 3.64971 16.1447 3.26645 15.0452L2.55825 15.2921L1.85004 15.539C2.29609 16.8186 2.9766 17.9866 3.83999 18.9931L4.40924 18.5048ZM2.90784 14.3127L3.3848 14.8915C4.21672 14.2059 4.75074 13.166 4.75074 12H4.00074H3.25074C3.25074 12.6977 2.93298 13.3201 2.43088 13.7339L2.90784 14.3127ZM4.00074 12H4.75074C4.75074 10.8341 4.21707 9.7936 3.38501 9.10774L2.90797 9.68646L2.43092 10.2652C2.93294 10.679 3.25074 11.302 3.25074 12H4.00074ZM2.55834 8.70676L3.26653 8.95368C3.64986 7.85426 4.23491 6.8493 4.97846 5.98253L4.40922 5.49421L3.83997 5.00588C2.97659 6.01234 2.29622 7.18048 1.85015 8.45984L2.55834 8.70676ZM5.31658 5.25738L5.14435 5.98733C6.03862 6.19834 7.01484 6.08406 7.87574 5.58702L7.50074 4.9375L7.12574 4.28798C6.61049 4.58546 6.02789 4.65462 5.48882 4.52742L5.31658 5.25738ZM7.50074 4.9375L7.87581 5.58698C8.81379 5.0453 9.42633 4.15867 9.65093 3.18371L8.92007 3.01535L8.18921 2.84699C8.05368 3.43533 7.68673 3.96401 7.12567 4.28802L7.50074 4.9375ZM9.53562 2.30557L9.71976 3.03261C10.4484 2.84807 11.2127 2.75 12.0007 2.75V2V1.25C11.0878 1.25 10.1999 1.36366 9.35149 1.57852L9.53562 2.30557ZM8.92007 3.01535L9.65093 3.18371C9.66639 3.11656 9.69269 3.06922 9.71307 3.04443C9.73055 3.02316 9.73361 3.0291 9.71976 3.03261L9.53562 2.30557L9.35149 1.57852C8.6606 1.7535 8.30365 2.35019 8.18921 2.84699L8.92007 3.01535ZM2.90797 9.68646L3.38501 9.10774C3.32434 9.05772 3.28911 9.00364 3.27498 8.96749C3.2631 8.93708 3.27184 8.93844 3.26653 8.95368L2.55834 8.70676L1.85015 8.45984C1.58476 9.22103 1.9959 9.9066 2.43092 10.2652L2.90797 9.68646ZM5.31662 18.7418L5.14467 18.0118C5.07779 18.0275 5.02383 18.0249 4.99258 18.0176C4.9657 18.0113 4.96939 18.0059 4.97849 18.0165L4.40924 18.5048L3.83999 18.9931C4.30252 19.5323 4.99315 19.5885 5.48857 19.4718L5.31662 18.7418ZM9.53546 21.6935L9.71983 20.9665C9.73361 20.97 9.73049 20.9759 9.71297 20.9546C9.69257 20.9298 9.66627 20.8824 9.65078 20.8153L8.91996 20.9838L8.18915 21.1524C8.30368 21.649 8.66057 22.2454 9.35108 22.4205L9.53546 21.6935ZM15.0797 20.9838L14.349 20.8149C14.3334 20.8822 14.3071 20.9296 14.2866 20.9545C14.269 20.9759 14.2659 20.97 14.2796 20.9665L14.464 21.6935L14.6484 22.4205C15.3389 22.2454 15.6957 21.649 15.8105 21.1527L15.0797 20.9838ZM19.5902 18.505L19.021 18.0166C19.0301 18.006 19.0338 18.0115 19.0069 18.0178C18.9757 18.025 18.9218 18.0277 18.855 18.0119L18.6831 18.742L18.5113 19.472C19.0066 19.5886 19.6969 19.5323 20.1593 18.9935L19.5902 18.505ZM21.4422 8.70679L20.734 8.9537C20.7287 8.93846 20.7374 8.9371 20.7255 8.96753C20.7114 9.00371 20.6761 9.05784 20.6154 9.1079L21.0926 9.68652L21.5698 10.2651C22.0046 9.90655 22.4158 9.22104 22.1504 8.45987L21.4422 8.70679ZM2.55825 15.2921L3.26645 15.0452C3.27176 15.0605 3.26302 15.0619 3.27488 15.0315C3.28899 14.9954 3.32419 14.9414 3.3848 14.8915L2.90784 14.3127L2.43088 13.7339C1.99576 14.0924 1.58474 14.7779 1.85004 15.539L2.55825 15.2921ZM18.684 5.25733L18.8562 5.98729C18.923 5.97154 18.9768 5.97415 19.008 5.98142C19.0348 5.98767 19.0311 5.99311 19.022 5.9825L19.5913 5.49417L20.1605 5.00583C19.698 4.46667 19.0073 4.41046 18.5118 4.52736L18.684 5.25733ZM4.40922 5.49421L4.97846 5.98253C4.96936 5.99314 4.96565 5.9877 4.99247 5.98145C5.02367 5.97418 5.07756 5.97157 5.14435 5.98733L5.31658 5.25738L5.48882 4.52742C4.99324 4.41048 4.30253 4.46667 3.83997 5.00588L4.40922 5.49421ZM21.0927 14.3126L20.6156 14.8913C20.6763 14.9413 20.7115 14.9953 20.7256 15.0315C20.7375 15.0618 20.7287 15.0604 20.7341 15.0452L21.4422 15.2921L22.1504 15.539C22.4158 14.7779 22.0047 14.0925 21.5698 13.7339L21.0927 14.3126ZM14.4638 2.30557L14.2797 3.03261C14.2658 3.0291 14.269 3.02318 14.2865 3.04453C14.307 3.0694 14.3333 3.11685 14.3489 3.18414L15.0796 3.01539L15.8104 2.84665C15.6958 2.35019 15.3389 1.75352 14.648 1.57853L14.4638 2.30557Z" fill="black"/>
</svg>
