<svg width="24" height="24" viewBox="0 0 24 24" fill="none" xmlns="http://www.w3.org/2000/svg">
<path d="M14 6.19995V10C11.21 10.05 10.05 11.21 10 14H6.2C3.2 14 2 12.8 2 9.80005V6.19995C2 3.19995 3.2 2 6.2 2H9.8C12.8 2 14 3.19995 14 6.19995Z" stroke="black" stroke-width="1.5" stroke-linecap="round" stroke-linejoin="round"/>
<path d="M6.96001 5.87008C6.43001 5.51008 5.73001 5.5101 5.20001 5.8901" stroke="black" stroke-width="1.5" stroke-miterlimit="10" stroke-linecap="round" stroke-linejoin="round"/>
<path d="M10.96 5.87008C10.43 5.51008 9.73001 5.5101 9.20001 5.8901" stroke="black" stroke-width="1.5" stroke-miterlimit="10" stroke-linecap="round" stroke-linejoin="round"/>
<path d="M8.15999 11.4202H5.83999C5.53999 11.4202 5.29999 11.1801 5.29999 10.8801C5.29999 9.39013 6.50999 8.18018 7.99999 8.18018C8.63999 8.18018 9.22999 8.40014 9.68999 8.77014" stroke="black" stroke-width="1.5" stroke-miterlimit="10" stroke-linecap="round" stroke-linejoin="round"/>
<path d="M22 14.2V17.8C22 20.8 20.8 22 17.8 22H14.2C11.2 22 10 20.8 10 17.8V14C10.05 11.21 11.21 10.05 14 10H17.8C20.8 10 22 11.2 22 14.2Z" stroke="black" stroke-width="1.5" stroke-linecap="round" stroke-linejoin="round"/>
<path d="M14.96 13.6201C14.43 13.9801 13.73 13.9801 13.2 13.6001" stroke="black" stroke-width="1.5" stroke-miterlimit="10" stroke-linecap="round" stroke-linejoin="round"/>
<path d="M18.96 13.6201C18.43 13.9801 17.73 13.9801 17.2 13.6001" stroke="black" stroke-width="1.5" stroke-miterlimit="10" stroke-linecap="round" stroke-linejoin="round"/>
<path d="M13.84 16.1802H18.16C18.46 16.1802 18.7 16.4201 18.7 16.7201C18.7 18.2101 17.49 19.4202 16 19.4202C14.51 19.4202 13.3 18.2101 13.3 16.7201C13.3 16.4201 13.54 16.1802 13.84 16.1802Z" stroke="black" stroke-width="1.5" stroke-miterlimit="10" stroke-linecap="round" stroke-linejoin="round"/>
</svg>
